# xmcd CD database file
#
# Track frame offsets:
#	150
#	14314
#	28800
#	40354
#	53951
#	66399
#	82811
#	93273
#	108443
#	120642
#	135727
#	150015
#	162867
#	176322
#	195454
#	214492
#	231463
#	252614
#	269182
#	288542
#	308784
#	327650
#
# Disc length: 4604 seconds
#
# Revision: 0
# Processed by: cddbd v1.5.2PL0 Copyright (c) Steve Scherf et al.
# Submitted via: CDex 1.60beta1-cs1
#
DISCID=4411fa16
DTITLE=Sidney Bechet - Storyville Masters Of Jazz
DYEAR=1900
DGENRE=Jazz
TTITLE0=House Party
TTITLE1=Revoluitonary Blues Part 1
TTITLE2=Revolutionary Blues Part 2
TTITLE3=Minor Swoon
TTITLE4=Bowin´ The Blues
TTITLE5=Jelly Roll
TTITLE6=Perdido Street Stomp
TTITLE7=Out Of The Gallion
TTITLE8=Gone Away Blues
TTITLE9=Groovin´The Minor
TTITLE10=Really The Blues 1
TTITLE11=Really The Blues 2
TTITLE12=Whoop Miss Wolf Away From The Door
TTITLE13=Tommy´s Blues
TTITLE14=Chigago Function 1
TTITLE15=Chicago Function 2
TTITLE16=Where Am I?
TTITLE17=I´m Speaking My Mind
TTITLE18=I Want Some
TTITLE19=Kaiser´s Last Break
TTITLE20=Funky Butt
TTITLE21=Blues Of The Roaring Twenties
EXTD=
EXTT0=
EXTT1=
EXTT2=
EXTT3=
EXTT4=
EXTT5=
EXTT6=
EXTT7=
EXTT8=
EXTT9=
EXTT10=
EXTT11=
EXTT12=
EXTT13=
EXTT14=
EXTT15=
EXTT16=
EXTT17=
EXTT18=
EXTT19=
EXTT20=
EXTT21=
PLAYORDER=
